<svg xmlns="http://www.w3.org/2000/svg" width="387" height="123" viewBox="0 0 387 123"><g transform="scale(0.125)"><g transform="translate(0.000000,984.000000) scale(0.050000,-0.050000)"
fill="#000000" stroke="none">
<path d="M42680 13706 c-64 -24 -120 -94 -120 -152 0 -32 35 -137 78 -233 43
-95 97 -231 120 -300 23 -70 68 -196 100 -279 32 -84 90 -237 128 -342 221
-599 429 -1163 516 -1394 54 -145 98 -268 98 -275 0 -6 85 -225 189 -486 104
-261 217 -551 253 -645 35 -93 94 -251 132 -350 37 -99 116 -315 175 -480 59
-165 149 -408 199 -540 51 -132 125 -325 164 -430 80 -210 141 -285 262 -319
101 -28 903 -27 1015 1 85 21 211 120 211 165 1 13 24 77 52 143 28 66 86 215
128 330 42 116 119 323 170 460 51 138 122 336 159 440 37 105 159 429 271
720 112 292 221 578 242 638 20 59 84 221 141 360 56 138 128 324 158 412 31
88 98 268 149 400 51 132 128 339 171 460 94 267 205 565 319 860 263 680 270
708 202 793 -38 46 -45 47 -441 53 -378 6 -409 4 -491 -36 -49 -24 -107 -72
-129 -108 -22 -36 -96 -222 -164 -413 -68 -192 -158 -448 -201 -569 -43 -121
-126 -364 -185 -540 -59 -176 -154 -446 -210 -600 -57 -154 -116 -316 -131
-360 -16 -44 -88 -246 -160 -450 -358 -1007 -571 -1626 -609 -1772 -26 -100
-91 -188 -139 -188 -70 0 -124 97 -230 412 -60 175 -172 498 -249 718 -77 220
-244 693 -370 1050 -126 358 -280 790 -342 960 -62 171 -166 463 -230 650
-216 626 -339 968 -378 1044 -47 91 -113 156 -189 185 -58 21 -777 28 -834 7z"/>
</g></g></svg>